<svg width="400" height="300" viewBox="0 0 400 300" xmlns="http://www.w3.org/2000/svg" style="image-rendering: pixelated;">
  <!-- Background -->
  <rect width="400" height="300" fill="#87CEEB"/>
  
  <!-- Ground -->
  <rect y="200" width="400" height="100" fill="#8B4513"/>
  
  <!-- Split-screen showing growth progression -->
  <!-- Seedling stage (left) -->
  <rect x="20" y="180" width="120" height="80" fill="#DEB887" stroke="#8B7355" stroke-width="2"/>
  <rect x="50" y="230" width="8" height="8" fill="#22c55e"/>
  <rect x="70" y="235" width="8" height="8" fill="#22c55e"/>
  <rect x="90" y="232" width="8" height="8" fill="#22c55e"/>
  
  <!-- Mature crop stage (center) -->
  <rect x="140" y="180" width="120" height="80" fill="#228B22"/>
  <rect x="160" y="200" width="12" height="40" fill="#16a34a"/>
  <rect x="180" y="195" width="12" height="45" fill="#16a34a"/>
  <rect x="200" y="190" width="12" height="50" fill="#16a34a"/>
  <rect x="220" y="195" width="12" height="45" fill="#16a34a"/>
  <rect x="240" y="200" width="12" height="40" fill="#16a34a"/>
  
  <!-- Harvest stage (right) -->
  <rect x="260" y="180" width="120" height="80" fill="#DAA520"/>
  <rect x="290" y="220" width="16" height="16" fill="#FFD700"/>
  <rect x="320" y="210" width="16" height="16" fill="#FFD700"/>
  <rect x="350" y="215" width="16" height="16" fill="#FFD700"/>
  
  <!-- Personal greenhouse -->
  <rect x="150" y="120" width="100" height="60" fill="rgba(255,255,255,0.3)" stroke="#666" stroke-width="2"/>
  <polygon points="150,120 200,100 250,120" fill="rgba(255,255,255,0.2)"/>
  
  <!-- Farmer tending plants -->
  <rect x="190" y="160" width="8" height="16" fill="#F4A460"/>
  <circle cx="194" cy="157" r="4" fill="#DEB887"/>
  
  <!-- AI farming assistant (robot/drone) -->
  <rect x="320" y="140" width="12" height="12" fill="#C0C0C0"/>
  <rect x="318" y="138" width="16" height="4" fill="#808080"/>
  <circle cx="326" cy="142" r="2" fill="#FF0000"/>
  
  <!-- Growth tracking displays -->
  <rect x="60" y="160" width="20" height="15" fill="#000"/>
  <rect x="62" y="162" width="16" height="11" fill="#00FF00"/>
  
  <!-- Progress calendar -->
  <rect x="300" y="160" width="24" height="16" fill="#FFF"/>
  <rect x="302" y="162" width="20" height="12" fill="#E0E0E0"/>
  <rect x="304" y="164" width="4" height="4" fill="#22c55e"/>
  <rect x="310" y="164" width="4" height="4" fill="#22c55e"/>
  <rect x="316" y="164" width="4" height="4" fill="#FFA500"/>
  
  <!-- Clouds -->
  <ellipse cx="80" cy="60" rx="20" ry="12" fill="white" opacity="0.8"/>
  <ellipse cx="320" cy="40" rx="25" ry="15" fill="white" opacity="0.8"/>
</svg>