<svg width="400" height="300" viewBox="0 0 400 300" xmlns="http://www.w3.org/2000/svg" style="image-rendering: pixelated;">
  <!-- Background -->
  <rect width="400" height="300" fill="#87CEEB"/>
  
  <!-- Ground -->
  <rect y="200" width="400" height="100" fill="#8B4513"/>
  
  <!-- Multiple connected farm plots -->
  <rect x="20" y="180" width="80" height="80" fill="#22c55e" stroke="#16a34a" stroke-width="2"/>
  <rect x="120" y="180" width="80" height="80" fill="#22c55e" stroke="#16a34a" stroke-width="2"/>
  <rect x="220" y="180" width="80" height="80" fill="#22c55e" stroke="#16a34a" stroke-width="2"/>
  <rect x="320" y="180" width="80" height="80" fill="#22c55e" stroke="#16a34a" stroke-width="2"/>
  
  <!-- Shared irrigation system -->
  <rect x="60" y="220" width="280" height="8" fill="#4169E1"/>
  
  <!-- Connection lines between farms -->
  <line x1="100" y1="220" x2="140" y2="220" stroke="#525252" stroke-width="3"/>
  <line x1="200" y1="220" x2="240" y2="220" stroke="#525252" stroke-width="3"/>
  <line x1="300" y1="220" x2="340" y2="220" stroke="#525252" stroke-width="3"/>
  
  <!-- Community barn in center -->
  <rect x="180" y="120" width="40" height="40" fill="#8B4513"/>
  <polygon points="180,120 200,100 220,120" fill="#654321"/>
  
  <!-- Farmers working together -->
  <rect x="50" y="190" width="8" height="16" fill="#F4A460"/>
  <rect x="150" y="190" width="8" height="16" fill="#F4A460"/>
  <rect x="250" y="190" width="8" height="16" fill="#F4A460"/>
  <rect x="350" y="190" width="8" height="16" fill="#F4A460"/>
  
  <!-- Data streams/network connections -->
  <circle cx="200" cy="50" r="4" fill="#22c55e"/>
  <line x1="200" y1="50" x2="60" y2="200" stroke="#22c55e" stroke-width="2" opacity="0.7"/>
  <line x1="200" y1="50" x2="160" y2="200" stroke="#22c55e" stroke-width="2" opacity="0.7"/>
  <line x1="200" y1="50" x2="260" y2="200" stroke="#22c55e" stroke-width="2" opacity="0.7"/>
  <line x1="200" y1="50" x2="360" y2="200" stroke="#22c55e" stroke-width="2" opacity="0.7"/>
  
  <!-- Clouds -->
  <ellipse cx="80" cy="60" rx="20" ry="12" fill="white" opacity="0.8"/>
  <ellipse cx="320" cy="40" rx="25" ry="15" fill="white" opacity="0.8"/>
</svg>